<?xml version="1.0" encoding="UTF-8"?>
<svg version="1.1" xmlns="http://www.w3.org/2000/svg" width="1536" height="1024">
<path d="M0 0 C2.18578806 0.58404761 4.37413554 1.10879393 6.58105469 1.60595703 C16.26350041 3.87435963 24.23262766 7.11637103 30.37011719 15.25830078 C37.12117056 26.65070336 34.08830506 37.42853102 31.07324219 49.69970703 C30.72434761 51.15911625 30.37655553 52.61878942 30.02978516 54.07870483 C29.10059109 57.97728593 28.15636505 61.87207963 27.20924377 65.76633835 C26.21296871 69.87481503 25.23126741 73.98677222 24.24804688 78.09838867 C22.49089085 85.43782113 20.72262849 92.77451281 18.94784164 100.1097002 C17.39443769 106.53003371 15.84888469 112.95223001 14.30761719 119.37548828 C13.85540228 121.2597692 13.4031727 123.14404661 12.95092773 125.02832031 C12.73189789 125.9409967 12.51286804 126.8536731 12.28720093 127.79400635 C11.60497696 130.63382329 10.92089839 133.47318896 10.23657227 136.3125 C6.99660111 149.7698328 3.80543484 163.23831705 0.63183594 176.71142578 C0.41940247 177.61326284 0.20696899 178.51509991 -0.01190186 179.44426537 C-1.11844588 184.14226547 -2.22470661 188.84033226 -3.33087158 193.53842163 C-11.41594126 227.8765773 -19.56325016 262.19851272 -27.85742188 296.48681641 C-28.62697778 299.66967457 -29.39615427 302.85262418 -30.16503906 306.03564453 C-30.35257626 306.81183514 -30.54011345 307.58802574 -30.73333359 308.38773727 C-33.34482473 319.20457046 -35.90108517 330.03314916 -38.41324615 340.87346649 C-38.93257219 343.11175923 -39.45387374 345.34958125 -39.97601318 347.58721924 C-40.22881924 348.67063976 -40.22881924 348.67063976 -40.48673248 349.77594757 C-40.82138335 351.20974304 -41.15613454 352.6435151 -41.49098969 354.07726288 C-42.28779087 357.49355245 -43.07871263 360.91098261 -43.85565186 364.33184814 C-44.70072335 368.0436185 -45.56389359 371.75076629 -46.43066406 375.45751953 C-46.66740341 376.52249161 -46.90414276 377.58746368 -47.14805603 378.68470764 C-50.53505252 392.96034665 -56.82293345 403.95110526 -69.04785156 412.12548828 C-79.87031678 418.44541502 -92.5627057 418.73688587 -104.55957031 415.95361328 C-114.9283278 412.63443596 -122.87929319 405.78361005 -128.62988281 396.63330078 C-129.01917969 396.04291016 -129.40847656 395.45251953 -129.80957031 394.84423828 C-134.84853811 386.20075337 -135.27318673 376.29341242 -133.40405273 366.70239258 C-133.19837945 365.59797207 -133.19837945 365.59797207 -132.98855114 364.47124004 C-131.48810922 356.58321595 -129.67110454 348.77348343 -127.80566406 340.96533203 C-127.42730662 339.36530615 -127.04939693 337.76517433 -126.67189026 336.16494751 C-125.86042257 332.72916572 -125.04600511 329.29410231 -124.22918701 325.85958862 C-122.90957539 320.31075729 -121.59662827 314.76036146 -120.28466797 309.2097168 C-118.87859417 303.26221714 -117.47205684 297.31482893 -116.06329346 291.3679657 C-112.56209724 276.58736073 -109.07758628 261.80288682 -105.60253906 247.01611328 C-105.35169807 245.94884506 -105.10085709 244.88157684 -104.84241486 243.78196716 C-103.82644367 239.45920344 -102.81052661 235.136427 -101.79470062 230.81362915 C-93.28125665 194.58608481 -84.73691606 158.36599069 -76.14759731 122.15636253 C-72.15111269 105.30758077 -68.17453178 88.45448753 -64.24316406 71.59036255 C-62.97342674 66.15171933 -61.69457098 60.7152114 -60.41638184 55.27854919 C-59.18773469 50.04295112 -57.98132577 44.80269451 -56.78770447 39.55900574 C-55.99690738 36.10068314 -55.19122495 32.64594182 -54.3821106 29.19186401 C-54.01370411 27.60430181 -53.65164385 26.01524958 -53.29684448 24.42459106 C-51.04316911 14.33334552 -48.69413307 4.98325468 -39.81738281 -1.30419922 C-26.63899636 -8.53105631 -13.50106306 -3.74019549 0 0 Z " fill="#0086E6" transform="translate(880.6298828125,191.36669921875)"/>
<path d="M0 0 C8.59844453 5.96079343 15.63637047 13.90874694 22.67480469 21.57568359 C28.04997802 27.41474175 33.64426314 33.01553305 39.30541992 38.57666016 C43.23424431 42.4570154 46.93829715 46.4435898 50.54125977 50.62719727 C53.30387208 53.74896887 56.27439255 56.6494933 59.25390625 59.5625 C62.83348008 63.06217263 66.31168682 66.5795737 69.5703125 70.3828125 C74.64621076 76.26614327 80.28411023 81.60090462 85.84179688 87.0234375 C86.66744141 87.838125 87.49308594 88.6528125 88.34375 89.4921875 C89.09519287 90.22679199 89.84663574 90.96139648 90.62084961 91.71826172 C92.25390625 93.5625 92.25390625 93.5625 92.25390625 95.5625 C92.91390625 95.5625 93.57390625 95.5625 94.25390625 95.5625 C95.48828125 96.8203125 95.48828125 96.8203125 97.00390625 98.6875 C100.54770243 102.87156187 104.35549476 106.71422557 108.25390625 110.5625 C112.44290486 114.706981 116.48066255 118.87172174 120.28515625 123.375 C123.15229301 126.56070751 126.20822504 129.54834758 129.25390625 132.5625 C133.44571384 136.71091414 137.4882971 140.87712063 141.29296875 145.38671875 C144.11042097 148.51285597 147.12976709 151.42425309 150.12890625 154.375 C163.08152055 167.21317078 172.53108816 178.55827184 172.64331055 197.42114258 C172.46799292 207.66030738 168.94651202 216.78460681 162.25390625 224.5625 C161.59390625 224.5625 160.93390625 224.5625 160.25390625 224.5625 C160.02832031 225.14902344 159.80273438 225.73554688 159.5703125 226.33984375 C155.97697507 232.40693277 147.17177169 236.17188375 140.55859375 238.06640625 C128.27520609 240.71045749 116.93364909 239.44767183 106.25390625 232.5625 C102.66243838 229.827063 99.46195902 226.72882954 96.25390625 223.5625 C95.17399414 222.50313232 95.17399414 222.50313232 94.07226562 221.42236328 C78.49902199 206.10909134 78.49902199 206.10909134 71.82885742 198.35571289 C69.58221024 195.79771823 67.19003222 193.44130536 64.75390625 191.0625 C61.03270624 187.39684029 57.51706121 183.63081639 54.12890625 179.65625 C51.77045377 177.02264473 49.26945221 174.54423486 46.75390625 172.0625 C43.0354512 168.39402419 39.5172243 164.63100771 36.12890625 160.65625 C33.770453 158.02264387 31.26944393 155.54424373 28.75390625 153.0625 C25.70074008 150.05018569 22.71318234 147.02701123 19.94140625 143.75 C16.05533942 139.18645905 11.77103248 135.02664144 7.4909668 130.83666992 C4.49255576 127.88208668 1.6231945 124.88073864 -1.12109375 121.6875 C-5.10051171 117.07741535 -9.40562363 112.83014344 -13.74609375 108.5625 C-18.68664549 103.70484342 -23.45837587 98.80986585 -27.97314453 93.55371094 C-31.88394306 89.16146736 -36.18301744 85.12990978 -40.40039062 81.03515625 C-41.09068359 80.35582031 -41.78097656 79.67648437 -42.4921875 78.9765625 C-43.43082642 78.06318115 -43.43082642 78.06318115 -44.38842773 77.13134766 C-45.74609375 75.5625 -45.74609375 75.5625 -45.74609375 73.5625 C-46.40609375 73.5625 -47.06609375 73.5625 -47.74609375 73.5625 C-50.26444573 71.06275653 -52.47045019 68.28304466 -54.74609375 65.5625 C-55.46796875 64.758125 -56.18984375 63.95375 -56.93359375 63.125 C-61.99727338 55.96600467 -63.90146279 49.32094275 -62.74609375 40.5625 C-61.08082551 32.4364918 -56.28701473 27.57788943 -50.40234375 22.10546875 C-47.91779429 19.72687802 -45.84542659 17.27928367 -43.74609375 14.5625 C-42.12634816 12.85019752 -40.45019915 11.19086738 -38.74609375 9.5625 C-38.08480469 8.91796875 -37.42351563 8.2734375 -36.7421875 7.609375 C-26.67250168 -1.84737342 -13.30840924 -7.05860379 0 0 Z " fill="#0086E7" transform="translate(560.74609375,263.4375)"/>
<path d="M0 0 C5.83999597 4.81543527 11.23345156 10.13155709 16.625 15.4375 C17.15826904 15.95763672 17.69153809 16.47777344 18.2409668 17.01367188 C19.53379634 18.30373942 20.77228065 19.64782113 22 21 C22 21.66 22 22.32 22 23 C22.60070312 23.26296875 23.20140625 23.5259375 23.8203125 23.796875 C26.13396304 25.07394376 27.22985567 26.20468543 28.875 28.25 C32.25487748 32.24243523 35.85432098 35.94172856 39.5625 39.625 C40.16118896 40.22038574 40.75987793 40.81577148 41.37670898 41.42919922 C43.24920174 43.28809991 45.12416073 45.14447668 47 47 C61.11245896 60.95961644 61.11245896 60.95961644 66.33984375 67.1171875 C69.85544251 71.10429009 73.71319965 74.77302272 77.5 78.5 C82.62443565 83.5434809 87.59097844 88.61142464 92.27099609 94.0703125 C94.70920311 96.79151954 97.35130674 99.27054318 100.00195312 101.7824707 C108.45028341 109.84942494 115.9139997 117.3349396 116.6875 129.625 C115.55920871 142.23118818 106.80962386 149.94600127 98.24487305 158.35205078 C96.18690177 160.37558822 94.15415091 162.42218969 92.12304688 164.47265625 C90.80611736 165.78268896 89.48780357 167.09133188 88.16796875 168.3984375 C87.56873093 169.00263519 86.9694931 169.60683289 86.35209656 170.2293396 C80.65015598 175.77662877 74.40684001 179.53943873 66.35546875 180.09375 C53.39344273 179.57784847 45.09697507 170.4309846 36.5 161.75 C35.67757812 160.9353125 34.85515625 160.120625 34.0078125 159.28125 C33.23179687 158.50265625 32.45578125 157.7240625 31.65625 156.921875 C30.95306641 156.21643555 30.24988281 155.51099609 29.52539062 154.78417969 C28 153 28 153 28 151 C27.34 151 26.68 151 26 151 C24.63823078 149.35648543 23.31037934 147.68477344 22 146 C20.3493449 144.31747413 18.6798906 142.65333696 17 141 C16.01500646 140.02601151 15.03023289 139.05180052 14.0456543 138.07739258 C13.5254924 137.56368607 13.00533051 137.04997955 12.46940613 136.52070618 C10.14742744 134.22556121 7.83082841 131.92501688 5.5144043 129.62426758 C4.28926822 128.4092823 3.06235721 127.19608435 1.83374023 125.98461914 C0.05505923 124.23006707 -1.71719771 122.46924778 -3.48828125 120.70703125 C-4.04131424 120.16432083 -4.59434723 119.62161041 -5.16413879 119.06245422 C-6.48126353 117.74572395 -7.74620618 116.37717 -9 115 C-9 114.34 -9 113.68 -9 113 C-9.66 113 -10.32 113 -11 113 C-12.45643616 111.52108765 -12.45643616 111.52108765 -14.14477539 109.48193359 C-17.79271565 105.19431884 -21.67054504 101.23298107 -25.68359375 97.2890625 C-27.11926706 95.86601296 -28.55481034 94.44283223 -29.99023438 93.01953125 C-32.22918599 90.80556407 -34.4697262 88.59324756 -36.71264648 86.38330078 C-38.89477043 84.23119197 -41.07078648 82.07305801 -43.24609375 79.9140625 C-43.92409531 79.24952057 -44.60209686 78.58497864 -45.30064392 77.90029907 C-45.91871414 77.2856076 -46.53678436 76.67091614 -47.17358398 76.03759766 C-47.72094711 75.49769196 -48.26831024 74.95778625 -48.83226013 74.40151978 C-50 73 -50 73 -50 71 C-50.57878906 70.76023437 -51.15757812 70.52046875 -51.75390625 70.2734375 C-59.86565307 65.67442974 -64.36410991 55.53255802 -67 47 C-69.60793368 35.8991244 -67.14699962 24.65622152 -61.7578125 14.7890625 C-54.9183967 3.93718943 -44.76689818 -3.55827546 -32.25 -6.6875 C-20.92292174 -7.77664214 -9.45692014 -7.06171766 0 0 Z " fill="#0086E6" transform="translate(916,608)"/>
<path d="M0 0 C10.2722481 8.02079646 15.61075185 19.4143204 17.27734375 32.11328125 C17.89120773 43.97313331 12.320364 54.70461246 5.8125 64.1875 C-6.30316783 76.30316783 -20.67599279 79.91199406 -36.6875 84.1875 C-38.57949354 84.69744985 -40.47133475 85.20796516 -42.36303711 85.71899414 C-46.55528474 86.85041896 -50.74851188 87.97812323 -54.94238281 89.10351562 C-62.01038917 91.00112522 -69.07514036 92.9106628 -76.13949394 94.82181358 C-105.55096416 102.7780752 -105.55096416 102.7780752 -118.26831055 106.18945312 C-122.44551627 107.30997926 -126.61887255 108.44279736 -130.78833008 109.59179688 C-132.47084065 110.04957192 -134.15337443 110.50726169 -135.8359375 110.96484375 C-136.55576309 111.16722153 -137.27558868 111.3695993 -138.01722717 111.57810974 C-147.06548903 114.0166575 -156.88231119 114.85933209 -165.625 110.9375 C-178.35193138 103.29279961 -180.84037431 88.90314642 -184.25683594 75.46899414 C-184.87432912 73.06511171 -185.5228073 70.67091124 -186.171875 68.27539062 C-188.86956542 57.9451548 -190.18765178 49.471768 -184.8125 39.6875 C-176.72277873 28.22119941 -164.17743456 25.89053657 -151.24609375 22.43359375 C-150.06459244 22.11342789 -148.88309113 21.79326202 -147.66578674 21.46339417 C-143.92421288 20.45030264 -140.18095967 19.44359857 -136.4375 18.4375 C-132.69080083 17.42664689 -128.94447529 16.4144323 -125.19850159 15.40089417 C-122.87830465 14.7735328 -120.55764245 14.14788863 -118.23643494 13.52427673 C-107.37345654 10.9460966 -107.37345654 10.9460966 -97 7 C-95.34494659 6.67588312 -93.68354243 6.38382052 -92.01953125 6.109375 C-86.47039224 5.1308055 -81.10689788 3.77964046 -75.6875 2.25 C-74.75252686 1.9912207 -73.81755371 1.73244141 -72.85424805 1.46582031 C-69.90153706 0.64845746 -66.950575 -0.17496229 -64 -1 C-60.10569317 -2.08892334 -56.2096643 -3.17135358 -52.3125 -4.25 C-51.44133545 -4.49588867 -50.5701709 -4.74177734 -49.67260742 -4.99511719 C-31.61327704 -9.99102085 -16.21965189 -10.87307884 0 0 Z " fill="#0087E7" transform="translate(684,553)"/>
<path d="M0 0 C8.19221904 6.04734715 10.46466408 15.20335742 13.1484375 24.5859375 C13.41221191 25.47925781 13.67598633 26.37257813 13.94775391 27.29296875 C22.60939269 56.87564264 22.60939269 56.87564264 16.26953125 68.765625 C10.3881804 78.31513543 1.72450624 82.22721051 -8.7890625 85.0859375 C-9.9123999 85.40506104 -11.0357373 85.72418457 -12.19311523 86.05297852 C-14.83625907 86.80071562 -17.48054578 87.54158948 -20.12792969 88.27392578 C-24.57390156 89.50528154 -29.01298568 90.7603333 -33.4516449 92.01776123 C-54.94389188 98.10576024 -76.45455828 104.11820225 -98.07250977 109.74584961 C-105.32461319 111.63632074 -112.53519978 113.62186596 -119.72167969 115.74951172 C-131.76466133 118.96786235 -144.46435872 118.72901407 -155.76953125 113.14453125 C-167.01988385 106.4563906 -173.82620954 97.59827071 -177.6015625 85.2109375 C-180.45483408 73.81352851 -178.95316698 62.50282032 -173.0390625 52.2734375 C-162.09033134 35.50148413 -146.57893545 30.54397538 -127.9609375 25.5625 C-126.1872952 25.08219307 -124.41384107 24.60119081 -122.64056396 24.11953735 C-118.92438409 23.11129494 -115.20714772 22.10709051 -111.48901367 21.1060791 C-106.00880004 19.62993733 -100.5322308 18.14064969 -95.05664062 16.64746094 C-85.30279056 13.98841209 -75.5465431 11.33826937 -65.78961182 8.69055176 C-62.12321941 7.69538692 -58.45704428 6.69942288 -54.79086685 5.70346642 C-51.22742043 4.73549685 -47.66386505 3.76792894 -44.10027313 2.80049515 C-42.41773384 2.34368993 -40.73522295 1.88678006 -39.052742 1.42975998 C-36.73741768 0.80091946 -34.4219523 0.17260112 -32.10644531 -0.45556641 C-31.08616493 -0.73282562 -31.08616493 -0.73282562 -30.04527283 -1.01568604 C-19.7164083 -3.81588507 -9.74488058 -5.70816629 0 0 Z " fill="#0086E6" transform="translate(1067.8515625,431.4140625)"/>
<path d="M0 0 C9.95705511 7.30072665 15.68632005 15.78161641 19.578125 27.45703125 C21.13576216 39.91738827 17.15834709 51.97928847 14.13671875 63.9296875 C13.56925181 66.22025185 13.00312034 68.51114741 12.43824768 70.80235291 C10.9500252 76.82333853 9.44374065 82.83966048 7.93353271 88.85516357 C6.42322505 94.88444352 4.9300773 100.91796558 3.43554688 106.95117188 C0.89870494 117.1841537 -1.6567056 127.41236609 -4.22100258 137.63849831 C-5.73161749 143.6713215 -7.22035389 149.70882426 -8.68310547 155.75341797 C-9.00436904 157.07242724 -9.32580615 158.39139425 -9.64744568 159.71031189 C-10.1937949 161.95779896 -10.73403796 164.20678698 -11.26576233 166.45777893 C-13.50242288 175.61011604 -16.33718446 185.43328428 -24.6015625 190.8984375 C-35.95999399 197.4341907 -45.97105765 195.70851058 -58.359375 192.70703125 C-60.01356445 192.32804687 -60.01356445 192.32804687 -61.70117188 191.94140625 C-86.11821386 186.17927245 -86.11821386 186.17927245 -92.296875 176.33203125 C-96.54398466 167.63853543 -95.62516738 159.06121556 -93.2734375 149.97265625 C-92.87930161 148.35934418 -92.87930161 148.35934418 -92.47720337 146.71343994 C-91.8492154 144.15352256 -91.21435711 141.59616469 -90.57043457 139.0402832 C-89.23669997 133.73668533 -87.94130616 128.42382359 -86.64355469 123.11132812 C-83.67044123 110.95774335 -80.66412379 98.81248936 -77.6539917 86.66802979 C-76.50651978 82.03458997 -75.36244587 77.40031374 -74.21831322 72.76604843 C-73.10479078 68.25801374 -71.98888775 63.75057084 -70.87230301 59.24329376 C-70.34452537 57.11150259 -69.81750433 54.97952394 -69.29130173 52.84734344 C-59.10056479 11.57341098 -59.10056479 11.57341098 -46.421875 1.45703125 C-32.08982376 -7.13139644 -14.63685097 -9.32509054 0 0 Z " fill="#0086E6" transform="translate(777.421875,660.54296875)"/>
<path d="M0 0 C1.89575251 -0.02721176 3.79161979 -0.04649136 5.6875 -0.0625 C6.74324219 -0.07410156 7.79898438 -0.08570313 8.88671875 -0.09765625 C11.72410262 -0.00865425 14.2438919 0.35060162 17 1 C13.76320778 2.95258928 11.66979261 3.17783445 7.9375 2.75 C7.08027344 2.66234375 6.22304688 2.5746875 5.33984375 2.484375 C3 2 3 2 0 0 Z " fill="#0380D8" transform="translate(972,785)"/>
<path d="M0 0 C0 0.33 0 0.66 0 1 C-5.52967941 1.71033431 -10.49983036 2.30267176 -16 1 C-16 0.67 -16 0.34 -16 0 C-10.49983036 -1.30267176 -5.52967941 -0.71033431 0 0 Z " fill="#0181DB" transform="translate(864,187)"/>
<path d="M0 0 C0.99 0.495 0.99 0.495 2 1 C1.01 1.495 1.01 1.495 0 2 C0 1.34 0 0.68 0 0 Z " fill="#0487E4" transform="translate(752,592)"/>
<path d="M0 0 C3 1 3 1 3 1 Z " fill="#0382DB" transform="translate(1025,432)"/>
<path d="" fill="#3B3B3E" transform="translate(0,0)"/>
<path d="" fill="#3B3B3D" transform="translate(0,0)"/>
<path d="M0 0 C2 1 2 1 2 1 Z " fill="#3A3B3C" transform="translate(1090,1003)"/>
<path d="" fill="#3A3B3B" transform="translate(0,0)"/>
<path d="M0 0 C2 1 2 1 2 1 Z " fill="#37393B" transform="translate(1090,979)"/>
<path d="M0 0 C2 1 2 1 2 1 Z " fill="#34373B" transform="translate(1090,955)"/>
<path d="" fill="#2F383C" transform="translate(0,0)"/>
<path d="M0 0 C2 1 2 1 2 1 Z " fill="#31373C" transform="translate(1090,931)"/>
<path d="" fill="#2F353C" transform="translate(0,0)"/>
<path d="M0 0 C2 1 2 1 2 1 Z " fill="#037FD8" transform="translate(923,741)"/>
<path d="M0 0 C2 1 2 1 2 1 Z " fill="#0388E4" transform="translate(745,576)"/>
<path d="M0 0 C2 1 2 1 2 1 Z " fill="#0583DE" transform="translate(964,543)"/>
<path d="M0 0 C2 1 2 1 2 1 Z " fill="#0485DF" transform="translate(913,464)"/>
<path d="M0 0 C2 1 2 1 2 1 Z " fill="#0784DD" transform="translate(948,453)"/>
<path d="" fill="#0381DF" transform="translate(0,0)"/>
<path d="" fill="#067BD0" transform="translate(0,0)"/>
<path d="" fill="#087AD1" transform="translate(0,0)"/>
<path d="M0 0 C2 1 2 1 2 1 Z " fill="#393A39" transform="translate(1090,59)"/>
<path d="M0 0 C2 1 2 1 2 1 Z " fill="#3B3A3B" transform="translate(1090,35)"/>
<path d="" fill="#3F3F40" transform="translate(0,0)"/>
<path d="" fill="#3A3E3D" transform="translate(0,0)"/>
<path d="" fill="#353A3D" transform="translate(0,0)"/>
<path d="" fill="#404040" transform="translate(0,0)"/>
<path d="" fill="#3D3C3C" transform="translate(0,0)"/>
<path d="" fill="#383B3D" transform="translate(0,0)"/>
<path d="" fill="#3A3D3E" transform="translate(0,0)"/>
<path d="" fill="#353A3B" transform="translate(0,0)"/>
<path d="" fill="#32383E" transform="translate(0,0)"/>
<path d="" fill="#3F3F40" transform="translate(0,0)"/>
<path d="" fill="#3C3C3C" transform="translate(0,0)"/>
<path d="" fill="#3C3D3C" transform="translate(0,0)"/>
<path d="" fill="#3C3A3D" transform="translate(0,0)"/>
<path d="" fill="#383A3B" transform="translate(0,0)"/>
<path d="" fill="#3E3E3F" transform="translate(0,0)"/>
<path d="" fill="#3B3C3C" transform="translate(0,0)"/>
<path d="" fill="#393C3D" transform="translate(0,0)"/>
<path d="" fill="#3D3F3D" transform="translate(0,0)"/>
<path d="" fill="#3D3E3D" transform="translate(0,0)"/>
<path d="" fill="#3A3E3D" transform="translate(0,0)"/>
<path d="" fill="#373C3D" transform="translate(0,0)"/>
<path d="" fill="#403F41" transform="translate(0,0)"/>
<path d="" fill="#373B3C" transform="translate(0,0)"/>
<path d="" fill="#343B3C" transform="translate(0,0)"/>
<path d="" fill="#32393C" transform="translate(0,0)"/>
<path d="" fill="#403F3F" transform="translate(0,0)"/>
<path d="" fill="#3B3B3B" transform="translate(0,0)"/>
<path d="" fill="#3F403F" transform="translate(0,0)"/>
<path d="" fill="#3D3C3D" transform="translate(0,0)"/>
<path d="" fill="#3B3C3D" transform="translate(0,0)"/>
<path d="" fill="#383A3B" transform="translate(0,0)"/>
<path d="" fill="#373B3C" transform="translate(0,0)"/>
<path d="" fill="#3B3C3A" transform="translate(0,0)"/>
<path d="" fill="#393C3D" transform="translate(0,0)"/>
<path d="" fill="#393B3A" transform="translate(0,0)"/>
<path d="" fill="#363A3B" transform="translate(0,0)"/>
<path d="" fill="#323B3E" transform="translate(0,0)"/>
<path d="" fill="#343A3E" transform="translate(0,0)"/>
<path d="" fill="#3A3B3C" transform="translate(0,0)"/>
<path d="" fill="#3D3E3D" transform="translate(0,0)"/>
<path d="" fill="#3E3E3F" transform="translate(0,0)"/>
<path d="" fill="#403E40" transform="translate(0,0)"/>
<path d="" fill="#393D3C" transform="translate(0,0)"/>
<path d="" fill="#404041" transform="translate(0,0)"/>
<path d="" fill="#41413F" transform="translate(0,0)"/>
<path d="" fill="#383B3C" transform="translate(0,0)"/>
<path d="" fill="#33393B" transform="translate(0,0)"/>
<path d="" fill="#303A3D" transform="translate(0,0)"/>
<path d="" fill="#31373D" transform="translate(0,0)"/>
<path d="" fill="#3B3D3E" transform="translate(0,0)"/>
<path d="" fill="#3F3E3F" transform="translate(0,0)"/>
<path d="" fill="#3D3C3D" transform="translate(0,0)"/>
<path d="" fill="#3B3A3C" transform="translate(0,0)"/>
<path d="" fill="#3E3F3E" transform="translate(0,0)"/>
<path d="" fill="#35393B" transform="translate(0,0)"/>
<path d="" fill="#3A3A3C" transform="translate(0,0)"/>
<path d="" fill="#3C3D3C" transform="translate(0,0)"/>
<path d="" fill="#393D3C" transform="translate(0,0)"/>
<path d="" fill="#32383C" transform="translate(0,0)"/>
<path d="" fill="#403F3F" transform="translate(0,0)"/>
<path d="" fill="#3F3F3F" transform="translate(0,0)"/>
<path d="" fill="#3D3C3B" transform="translate(0,0)"/>
<path d="" fill="#38393B" transform="translate(0,0)"/>
<path d="" fill="#35393B" transform="translate(0,0)"/>
<path d="" fill="#33393C" transform="translate(0,0)"/>
<path d="" fill="#33383B" transform="translate(0,0)"/>
<path d="" fill="#31383C" transform="translate(0,0)"/>
<path d="" fill="#3E3F3F" transform="translate(0,0)"/>
<path d="" fill="#3A3B3A" transform="translate(0,0)"/>
<path d="" fill="#404040" transform="translate(0,0)"/>
<path d="" fill="#3B3C3C" transform="translate(0,0)"/>
<path d="" fill="#343B3B" transform="translate(0,0)"/>
<path d="" fill="#3A3B3D" transform="translate(0,0)"/>
<path d="" fill="#3C3E3D" transform="translate(0,0)"/>
<path d="" fill="#383C3B" transform="translate(0,0)"/>
<path d="" fill="#3F3F40" transform="translate(0,0)"/>
<path d="" fill="#3F4140" transform="translate(0,0)"/>
<path d="" fill="#36393C" transform="translate(0,0)"/>
<path d="" fill="#31393B" transform="translate(0,0)"/>
<path d="" fill="#32373B" transform="translate(0,0)"/>
<path d="" fill="#2D373D" transform="translate(0,0)"/>
<path d="" fill="#3B3B3D" transform="translate(0,0)"/>
<path d="" fill="#3E3E40" transform="translate(0,0)"/>
<path d="" fill="#393A3C" transform="translate(0,0)"/>
<path d="" fill="#333A3C" transform="translate(0,0)"/>
<path d="" fill="#32373F" transform="translate(0,0)"/>
<path d="" fill="#2D373D" transform="translate(0,0)"/>
<path d="" fill="#3C3E3C" transform="translate(0,0)"/>
<path d="" fill="#3F403F" transform="translate(0,0)"/>
<path d="" fill="#403F3F" transform="translate(0,0)"/>
<path d="" fill="#30383C" transform="translate(0,0)"/>
<path d="" fill="#2D373F" transform="translate(0,0)"/>
<path d="" fill="#3A3A3D" transform="translate(0,0)"/>
<path d="" fill="#3E3E3F" transform="translate(0,0)"/>
<path d="" fill="#343A3C" transform="translate(0,0)"/>
<path d="" fill="#383A3A" transform="translate(0,0)"/>
<path d="" fill="#3F403D" transform="translate(0,0)"/>
<path d="" fill="#35393C" transform="translate(0,0)"/>
<path d="" fill="#32393B" transform="translate(0,0)"/>
<path d="" fill="#2E363B" transform="translate(0,0)"/>
<path d="" fill="#3A3B3C" transform="translate(0,0)"/>
<path d="" fill="#32393B" transform="translate(0,0)"/>
<path d="" fill="#363C3C" transform="translate(0,0)"/>
<path d="" fill="#3D403F" transform="translate(0,0)"/>
<path d="" fill="#2F383B" transform="translate(0,0)"/>
<path d="" fill="#2E383B" transform="translate(0,0)"/>
<path d="" fill="#3A3A3B" transform="translate(0,0)"/>
<path d="" fill="#393B3B" transform="translate(0,0)"/>
<path d="" fill="#383C3B" transform="translate(0,0)"/>
<path d="" fill="#37393B" transform="translate(0,0)"/>
<path d="" fill="#31383B" transform="translate(0,0)"/>
<path d="" fill="#34393B" transform="translate(0,0)"/>
<path d="" fill="#2F373D" transform="translate(0,0)"/>
<path d="" fill="#31393B" transform="translate(0,0)"/>
<path d="" fill="#3E3E3F" transform="translate(0,0)"/>
<path d="" fill="#3D3E3E" transform="translate(0,0)"/>
<path d="" fill="#35393D" transform="translate(0,0)"/>
<path d="" fill="#2D363B" transform="translate(0,0)"/>
<path d="" fill="#373A3C" transform="translate(0,0)"/>
<path d="" fill="#353A3B" transform="translate(0,0)"/>
<path d="" fill="#31383B" transform="translate(0,0)"/>
<path d="" fill="#2F393C" transform="translate(0,0)"/>
<path d="" fill="#363839" transform="translate(0,0)"/>
<path d="" fill="#33373C" transform="translate(0,0)"/>
<path d="" fill="#2F373C" transform="translate(0,0)"/>
<path d="" fill="#333A3C" transform="translate(0,0)"/>
<path d="" fill="#3D3E3E" transform="translate(0,0)"/>
<path d="" fill="#2C373D" transform="translate(0,0)"/>
<path d="" fill="#373A3C" transform="translate(0,0)"/>
<path d="" fill="#3D3D3F" transform="translate(0,0)"/>
<path d="" fill="#39383B" transform="translate(0,0)"/>
<path d="" fill="#33383D" transform="translate(0,0)"/>
<path d="" fill="#2D373E" transform="translate(0,0)"/>
<path d="" fill="#393B3A" transform="translate(0,0)"/>
<path d="" fill="#3C3C3E" transform="translate(0,0)"/>
<path d="" fill="#323A3C" transform="translate(0,0)"/>
<path d="" fill="#3D3E3E" transform="translate(0,0)"/>
<path d="" fill="#29363D" transform="translate(0,0)"/>
<path d="" fill="#37393B" transform="translate(0,0)"/>
<path d="" fill="#3C3E3E" transform="translate(0,0)"/>
<path d="" fill="#33373B" transform="translate(0,0)"/>
<path d="" fill="#333939" transform="translate(0,0)"/>
<path d="" fill="#2B373E" transform="translate(0,0)"/>
<path d="" fill="#33383A" transform="translate(0,0)"/>
<path d="" fill="#393A3C" transform="translate(0,0)"/>
<path d="" fill="#31393D" transform="translate(0,0)"/>
<path d="" fill="#29373E" transform="translate(0,0)"/>
<path d="" fill="#37383C" transform="translate(0,0)"/>
<path d="" fill="#32383A" transform="translate(0,0)"/>
<path d="" fill="#3D3B3B" transform="translate(0,0)"/>
<path d="" fill="#30383D" transform="translate(0,0)"/>
<path d="" fill="#283C4A" transform="translate(0,0)"/>
<path d="" fill="#38393B" transform="translate(0,0)"/>
<path d="" fill="#3B3C3D" transform="translate(0,0)"/>
<path d="" fill="#2F393D" transform="translate(0,0)"/>
<path d="" fill="#3B3B3D" transform="translate(0,0)"/>
<path d="" fill="#3C3D3B" transform="translate(0,0)"/>
<path d="" fill="#3E3E3E" transform="translate(0,0)"/>
<path d="" fill="#263841" transform="translate(0,0)"/>
<path d="" fill="#27363F" transform="translate(0,0)"/>
<path d="" fill="#35373B" transform="translate(0,0)"/>
<path d="" fill="#3D3D3D" transform="translate(0,0)"/>
<path d="" fill="#2F383D" transform="translate(0,0)"/>
<path d="" fill="#2A393E" transform="translate(0,0)"/>
<path d="" fill="#2B373F" transform="translate(0,0)"/>
<path d="" fill="#283742" transform="translate(0,0)"/>
<path d="" fill="#244355" transform="translate(0,0)"/>
<path d="" fill="#373939" transform="translate(0,0)"/>
<path d="" fill="#3C3C3D" transform="translate(0,0)"/>
<path d="" fill="#3E3D3E" transform="translate(0,0)"/>
<path d="" fill="#2E3A3F" transform="translate(0,0)"/>
<path d="" fill="#283943" transform="translate(0,0)"/>
<path d="" fill="#213A4A" transform="translate(0,0)"/>
<path d="" fill="#3D3D3C" transform="translate(0,0)"/>
<path d="" fill="#3D3D3D" transform="translate(0,0)"/>
<path d="" fill="#263842" transform="translate(0,0)"/>
<path d="" fill="#253642" transform="translate(0,0)"/>
<path d="" fill="#34383C" transform="translate(0,0)"/>
<path d="" fill="#333539" transform="translate(0,0)"/>
<path d="" fill="#3D3D3D" transform="translate(0,0)"/>
<path d="" fill="#3D3C3E" transform="translate(0,0)"/>
<path d="" fill="#373839" transform="translate(0,0)"/>
<path d="" fill="#3D3E3D" transform="translate(0,0)"/>
<path d="" fill="#2F363E" transform="translate(0,0)"/>
<path d="" fill="#2E3840" transform="translate(0,0)"/>
<path d="" fill="#3C3D3C" transform="translate(0,0)"/>
<path d="" fill="#3E3D3D" transform="translate(0,0)"/>
<path d="" fill="#343939" transform="translate(0,0)"/>
<path d="" fill="#3C3D3E" transform="translate(0,0)"/>
<path d="" fill="#263945" transform="translate(0,0)"/>
<path d="" fill="#34373C" transform="translate(0,0)"/>
<path d="" fill="#3E3D3D" transform="translate(0,0)"/>
<path d="" fill="#31363D" transform="translate(0,0)"/>
<path d="" fill="#283943" transform="translate(0,0)"/>
<path d="" fill="#3D3E3D" transform="translate(0,0)"/>
<path d="" fill="#233A47" transform="translate(0,0)"/>
<path d="" fill="#233948" transform="translate(0,0)"/>
<path d="" fill="#2D383E" transform="translate(0,0)"/>
<path d="" fill="#273A45" transform="translate(0,0)"/>
<path d="" fill="#323739" transform="translate(0,0)"/>
<path d="" fill="#2B3B44" transform="translate(0,0)"/>
<path d="" fill="#3C3D3D" transform="translate(0,0)"/>
<path d="" fill="#233B4B" transform="translate(0,0)"/>
<path d="" fill="#32373C" transform="translate(0,0)"/>
<path d="" fill="#3D3D3D" transform="translate(0,0)"/>
<path d="" fill="#2E3840" transform="translate(0,0)"/>
<path d="" fill="#213E4E" transform="translate(0,0)"/>
<path d="" fill="#32363C" transform="translate(0,0)"/>
<path d="" fill="#3D3C3E" transform="translate(0,0)"/>
<path d="" fill="#2E353E" transform="translate(0,0)"/>
<path d="" fill="#35383C" transform="translate(0,0)"/>
<path d="" fill="#3C3C3E" transform="translate(0,0)"/>
<path d="" fill="#283D4A" transform="translate(0,0)"/>
<path d="" fill="#3C3B3A" transform="translate(0,0)"/>
<path d="" fill="#3D3D3D" transform="translate(0,0)"/>
<path d="" fill="#223E52" transform="translate(0,0)"/>
<path d="" fill="#3D3D3D" transform="translate(0,0)"/>
<path d="" fill="#323A3C" transform="translate(0,0)"/>
<path d="" fill="#2B3A43" transform="translate(0,0)"/>
<path d="" fill="#223E50" transform="translate(0,0)"/>
<path d="" fill="#3B393B" transform="translate(0,0)"/>
<path d="" fill="#3C3A3B" transform="translate(0,0)"/>
<path d="" fill="#2F363C" transform="translate(0,0)"/>
<path d="" fill="#30383B" transform="translate(0,0)"/>
<path d="" fill="#35393D" transform="translate(0,0)"/>
<path d="" fill="#3D3C3B" transform="translate(0,0)"/>
<path d="" fill="#3D3D3D" transform="translate(0,0)"/>
<path d="" fill="#1F4158" transform="translate(0,0)"/>
<path d="" fill="#2F383E" transform="translate(0,0)"/>
<path d="" fill="#224056" transform="translate(0,0)"/>
<path d="" fill="#1F435B" transform="translate(0,0)"/>
<path d="" fill="#3B3D3B" transform="translate(0,0)"/>
<path d="" fill="#3C3D3C" transform="translate(0,0)"/>
<path d="" fill="#3B3C3A" transform="translate(0,0)"/>
<path d="" fill="#1E445D" transform="translate(0,0)"/>
<path d="" fill="#2F373F" transform="translate(0,0)"/>
<path d="" fill="#3C3B3C" transform="translate(0,0)"/>
<path d="" fill="#1D4663" transform="translate(0,0)"/>
<path d="" fill="#2E3840" transform="translate(0,0)"/>
<path d="" fill="#3D3C3D" transform="translate(0,0)"/>
<path d="" fill="#34373B" transform="translate(0,0)"/>
<path d="" fill="#3B3B3C" transform="translate(0,0)"/>
<path d="" fill="#1C4968" transform="translate(0,0)"/>
<path d="" fill="#2E3941" transform="translate(0,0)"/>
<path d="" fill="#273C4E" transform="translate(0,0)"/>
<path d="" fill="#1C4D6F" transform="translate(0,0)"/>
<path d="" fill="#3D3E3C" transform="translate(0,0)"/>
<path d="" fill="#3D3E3E" transform="translate(0,0)"/>
<path d="" fill="#2C3842" transform="translate(0,0)"/>
<path d="" fill="#333A3E" transform="translate(0,0)"/>
<path d="" fill="#3B3B3C" transform="translate(0,0)"/>
<path d="" fill="#3D3D3D" transform="translate(0,0)"/>
<path d="" fill="#3D3E3D" transform="translate(0,0)"/>
<path d="" fill="#195176" transform="translate(0,0)"/>
<path d="" fill="#2B3944" transform="translate(0,0)"/>
<path d="" fill="#3C3D3D" transform="translate(0,0)"/>
<path d="" fill="#3D3D3D" transform="translate(0,0)"/>
<path d="" fill="#3C3E3B" transform="translate(0,0)"/>
<path d="" fill="#333B3F" transform="translate(0,0)"/>
<path d="" fill="#3D3D3D" transform="translate(0,0)"/>
<path d="" fill="#19557F" transform="translate(0,0)"/>
<path d="" fill="#2B3A46" transform="translate(0,0)"/>
<path d="" fill="#254359" transform="translate(0,0)"/>
<path d="" fill="#263B49" transform="translate(0,0)"/>
<path d="" fill="#3D3D3C" transform="translate(0,0)"/>
<path d="" fill="#1E5172" transform="translate(0,0)"/>
<path d="" fill="#3E3D3E" transform="translate(0,0)"/>
<path d="" fill="#175988" transform="translate(0,0)"/>
<path d="" fill="#2A3A48" transform="translate(0,0)"/>
<path d="" fill="#3D3C3D" transform="translate(0,0)"/>
<path d="" fill="#3C3F3D" transform="translate(0,0)"/>
<path d="" fill="#3E3F3D" transform="translate(0,0)"/>
<path d="" fill="#165E92" transform="translate(0,0)"/>
<path d="" fill="#3C3E3F" transform="translate(0,0)"/>
<path d="" fill="#3E403D" transform="translate(0,0)"/>
<path d="" fill="#3D3D3D" transform="translate(0,0)"/>
<path d="" fill="#3D3D3E" transform="translate(0,0)"/>
<path d="" fill="#283B4B" transform="translate(0,0)"/>
<path d="" fill="#3C3D3E" transform="translate(0,0)"/>
<path d="" fill="#313943" transform="translate(0,0)"/>
<path d="" fill="#3C3B3C" transform="translate(0,0)"/>
<path d="" fill="#3D3D3C" transform="translate(0,0)"/>
<path d="" fill="#313C45" transform="translate(0,0)"/>
<path d="" fill="#3D3D3E" transform="translate(0,0)"/>
<path d="" fill="#3D3D3E" transform="translate(0,0)"/>
<path d="" fill="#3D3E3D" transform="translate(0,0)"/>
<path d="" fill="#1C5B8B" transform="translate(0,0)"/>
<path d="" fill="#273D4E" transform="translate(0,0)"/>
<path d="" fill="#3E3D3E" transform="translate(0,0)"/>
<path d="" fill="#3E3F3D" transform="translate(0,0)"/>
<path d="" fill="#2F3C46" transform="translate(0,0)"/>
<path d="" fill="#3C3D3C" transform="translate(0,0)"/>
<path d="" fill="#3D3E3E" transform="translate(0,0)"/>
<path d="" fill="#3E3E3D" transform="translate(0,0)"/>
<path d="" fill="#273E50" transform="translate(0,0)"/>
<path d="" fill="#3D3D3E" transform="translate(0,0)"/>
<path d="" fill="#057CD6" transform="translate(0,0)"/>
<path d="" fill="#313D45" transform="translate(0,0)"/>
<path d="" fill="#3E3F3F" transform="translate(0,0)"/>
<path d="" fill="#263E52" transform="translate(0,0)"/>
<path d="" fill="#3E3D3F" transform="translate(0,0)"/>
<path d="" fill="#244056" transform="translate(0,0)"/>
<path d="" fill="#3D3D3F" transform="translate(0,0)"/>
<path d="" fill="#3D3E3D" transform="translate(0,0)"/>
<path d="" fill="#0A7ED1" transform="translate(0,0)"/>
<path d="" fill="#3B3C3B" transform="translate(0,0)"/>
<path d="" fill="#3E3D3D" transform="translate(0,0)"/>
<path d="" fill="#3D3E3E" transform="translate(0,0)"/>
<path d="" fill="#3D3D3E" transform="translate(0,0)"/>
<path d="" fill="#3C3B3C" transform="translate(0,0)"/>
<path d="" fill="#3D3E3E" transform="translate(0,0)"/>
<path d="" fill="#343B42" transform="translate(0,0)"/>
<path d="" fill="#24435C" transform="translate(0,0)"/>
<path d="" fill="#3D3C3E" transform="translate(0,0)"/>
<path d="" fill="#1E547F" transform="translate(0,0)"/>
<path d="" fill="#3C3C3E" transform="translate(0,0)"/>
<path d="" fill="#3D3E3E" transform="translate(0,0)"/>
<path d="" fill="#234661" transform="translate(0,0)"/>
<path d="" fill="#3F3C3D" transform="translate(0,0)"/>
<path d="" fill="#3D3D3B" transform="translate(0,0)"/>
<path d="" fill="#3E3D3E" transform="translate(0,0)"/>
<path d="" fill="#3C3E3A" transform="translate(0,0)"/>
<path d="" fill="#3D3E3E" transform="translate(0,0)"/>
<path d="" fill="#214765" transform="translate(0,0)"/>
<path d="" fill="#047FD7" transform="translate(0,0)"/>
<path d="" fill="#0480DB" transform="translate(0,0)"/>
<path d="" fill="#3D3F3E" transform="translate(0,0)"/>
<path d="" fill="#214968" transform="translate(0,0)"/>
<path d="" fill="#3E3E3E" transform="translate(0,0)"/>
<path d="" fill="#3E3D3F" transform="translate(0,0)"/>
<path d="" fill="#3D3E3E" transform="translate(0,0)"/>
<path d="" fill="#3D3D3E" transform="translate(0,0)"/>
<path d="" fill="#0183DA" transform="translate(0,0)"/>
<path d="" fill="#3D3D3E" transform="translate(0,0)"/>
<path d="" fill="#3C3D3C" transform="translate(0,0)"/>
<path d="" fill="#3E3E3D" transform="translate(0,0)"/>
<path d="" fill="#3E3E3E" transform="translate(0,0)"/>
<path d="" fill="#303B43" transform="translate(0,0)"/>
<path d="" fill="#3D3D3F" transform="translate(0,0)"/>
<path d="" fill="#3E3D3E" transform="translate(0,0)"/>
<path d="" fill="#1F4E72" transform="translate(0,0)"/>
<path d="" fill="#39393B" transform="translate(0,0)"/>
<path d="" fill="#3D3E3D" transform="translate(0,0)"/>
<path d="" fill="#0783DE" transform="translate(0,0)"/>
<path d="" fill="#3D3F3E" transform="translate(0,0)"/>
<path d="" fill="#1E5279" transform="translate(0,0)"/>
<path d="" fill="#3E3E3D" transform="translate(0,0)"/>
<path d="" fill="#2D3E4B" transform="translate(0,0)"/>
<path d="" fill="#3E3D3F" transform="translate(0,0)"/>
<path d="" fill="#3D3E3E" transform="translate(0,0)"/>
<path d="" fill="#1D5580" transform="translate(0,0)"/>
<path d="" fill="#1B5381" transform="translate(0,0)"/>
<path d="" fill="#3E3D3E" transform="translate(0,0)"/>
<path d="" fill="#3D3D3E" transform="translate(0,0)"/>
<path d="" fill="#1D5987" transform="translate(0,0)"/>
<path d="" fill="#3D3F3F" transform="translate(0,0)"/>
<path d="" fill="#3E3F3E" transform="translate(0,0)"/>
<path d="" fill="#3A3B3E" transform="translate(0,0)"/>
<path d="" fill="#3C3F3D" transform="translate(0,0)"/>
<path d="" fill="#2C3E4B" transform="translate(0,0)"/>
<path d="" fill="#3E3E3E" transform="translate(0,0)"/>
<path d="" fill="#313A43" transform="translate(0,0)"/>
<path d="" fill="#1C5D8F" transform="translate(0,0)"/>
<path d="" fill="#097CD0" transform="translate(0,0)"/>
<path d="" fill="#3D3E3E" transform="translate(0,0)"/>
<path d="" fill="#3C3E3C" transform="translate(0,0)"/>
<path d="" fill="#3D3D3E" transform="translate(0,0)"/>
<path d="" fill="#1967A3" transform="translate(0,0)"/>
<path d="" fill="#3D3D3F" transform="translate(0,0)"/>
<path d="" fill="#3D3E3E" transform="translate(0,0)"/>
<path d="" fill="#3D3E3E" transform="translate(0,0)"/>
<path d="" fill="#0781D6" transform="translate(0,0)"/>
<path d="" fill="#176CAE" transform="translate(0,0)"/>
<path d="" fill="#3C3E3E" transform="translate(0,0)"/>
<path d="" fill="#3C3E3D" transform="translate(0,0)"/>
<path d="" fill="#3B3E3E" transform="translate(0,0)"/>
<path d="" fill="#3D3D3E" transform="translate(0,0)"/>
<path d="" fill="#1672B7" transform="translate(0,0)"/>
<path d="" fill="#1A4F78" transform="translate(0,0)"/>
<path d="" fill="#0476CA" transform="translate(0,0)"/>
<path d="" fill="#3D3D3E" transform="translate(0,0)"/>
<path d="" fill="#1378C3" transform="translate(0,0)"/>
<path d="" fill="#3B3C3D" transform="translate(0,0)"/>
<path d="" fill="#3A3B3D" transform="translate(0,0)"/>
<path d="" fill="#3D3E3F" transform="translate(0,0)"/>
<path d="" fill="#3E3E3E" transform="translate(0,0)"/>
<path d="" fill="#0681D9" transform="translate(0,0)"/>
<path d="" fill="#0485E1" transform="translate(0,0)"/>
<path d="" fill="#3E3D3D" transform="translate(0,0)"/>
<path d="" fill="#3E3E3F" transform="translate(0,0)"/>
<path d="" fill="#2D3B49" transform="translate(0,0)"/>
<path d="" fill="#0880D7" transform="translate(0,0)"/>
<path d="" fill="#3E3E3E" transform="translate(0,0)"/>
<path d="" fill="#0B81D6" transform="translate(0,0)"/>
<path d="" fill="#2E3D49" transform="translate(0,0)"/>
<path d="" fill="#3D3E3F" transform="translate(0,0)"/>
<path d="" fill="#2C3C49" transform="translate(0,0)"/>
<path d="" fill="#087CD1" transform="translate(0,0)"/>
<path d="" fill="#3F3E3F" transform="translate(0,0)"/>
<path d="" fill="#3C3D3F" transform="translate(0,0)"/>
<path d="" fill="#3E3F3E" transform="translate(0,0)"/>
<path d="" fill="#0F7DD0" transform="translate(0,0)"/>
<path d="" fill="#2C3D4A" transform="translate(0,0)"/>
<path d="" fill="#3D3E3E" transform="translate(0,0)"/>
<path d="" fill="#3D3E3E" transform="translate(0,0)"/>
<path d="" fill="#3E3E3D" transform="translate(0,0)"/>
<path d="" fill="#0E7FD2" transform="translate(0,0)"/>
<path d="" fill="#3D3E3B" transform="translate(0,0)"/>
<path d="" fill="#3E3E3E" transform="translate(0,0)"/>
<path d="" fill="#0D80D1" transform="translate(0,0)"/>
<path d="" fill="#3D3D3C" transform="translate(0,0)"/>
<path d="" fill="#234259" transform="translate(0,0)"/>
<path d="" fill="#3D3D3D" transform="translate(0,0)"/>
<path d="" fill="#3D3E3E" transform="translate(0,0)"/>
<path d="" fill="#3E3E3C" transform="translate(0,0)"/>
<path d="" fill="#0088E2" transform="translate(0,0)"/>
<path d="" fill="#0589E4" transform="translate(0,0)"/>
<path d="" fill="#3D3E3D" transform="translate(0,0)"/>
<path d="" fill="#0E7CCB" transform="translate(0,0)"/>
<path d="" fill="#3D3E3D" transform="translate(0,0)"/>
<path d="" fill="#3D3F3E" transform="translate(0,0)"/>
<path d="" fill="#1377C4" transform="translate(0,0)"/>
<path d="" fill="#3E3F3E" transform="translate(0,0)"/>
<path d="" fill="#2B3C4D" transform="translate(0,0)"/>
<path d="" fill="#3D3D3D" transform="translate(0,0)"/>
<path d="" fill="#0C7DCD" transform="translate(0,0)"/>
<path d="" fill="#0488E3" transform="translate(0,0)"/>
<path d="" fill="#3D3E3F" transform="translate(0,0)"/>
<path d="" fill="#0287E5" transform="translate(0,0)"/>
<path d="" fill="#3D3F3D" transform="translate(0,0)"/>
<path d="" fill="#393C3D" transform="translate(0,0)"/>
<path d="" fill="#3E3E3E" transform="translate(0,0)"/>
<path d="" fill="#0D7FCF" transform="translate(0,0)"/>
<path d="" fill="#1770B3" transform="translate(0,0)"/>
<path d="" fill="#3D3E3E" transform="translate(0,0)"/>
<path d="" fill="#3E3E3E" transform="translate(0,0)"/>
<path d="" fill="#0681DA" transform="translate(0,0)"/>
<path d="" fill="#3D3E3D" transform="translate(0,0)"/>
<path d="" fill="#2A414F" transform="translate(0,0)"/>
<path d="" fill="#3E3F3E" transform="translate(0,0)"/>
<path d="" fill="#0E80D2" transform="translate(0,0)"/>
<path d="" fill="#3D3D3D" transform="translate(0,0)"/>
<path d="" fill="#3E3E3E" transform="translate(0,0)"/>
<path d="" fill="#1B537C" transform="translate(0,0)"/>
<path d="" fill="#3E3F3D" transform="translate(0,0)"/>
<path d="" fill="#3D3D3E" transform="translate(0,0)"/>
<path d="" fill="#0387E5" transform="translate(0,0)"/>
<path d="" fill="#3E3E3F" transform="translate(0,0)"/>
<path d="" fill="#0589E5" transform="translate(0,0)"/>
<path d="" fill="#1A659D" transform="translate(0,0)"/>
<path d="" fill="#3D3E3E" transform="translate(0,0)"/>
<path d="" fill="#283F50" transform="translate(0,0)"/>
<path d="" fill="#3E3F3E" transform="translate(0,0)"/>
<path d="" fill="#0686E3" transform="translate(0,0)"/>
<path d="" fill="#0685E2" transform="translate(0,0)"/>
<path d="" fill="#0385DF" transform="translate(0,0)"/>
<path d="" fill="#3B3D3D" transform="translate(0,0)"/>
<path d="" fill="#3E3E3E" transform="translate(0,0)"/>
<path d="" fill="#1C6096" transform="translate(0,0)"/>
<path d="" fill="#3E3E3E" transform="translate(0,0)"/>
<path d="" fill="#3D3F3D" transform="translate(0,0)"/>
<path d="" fill="#3D3D3D" transform="translate(0,0)"/>
<path d="" fill="#3F3E3E" transform="translate(0,0)"/>
<path d="" fill="#1B5E90" transform="translate(0,0)"/>
<path d="" fill="#3D3D3F" transform="translate(0,0)"/>
<path d="" fill="#0782DA" transform="translate(0,0)"/>
<path d="" fill="#3D3E3D" transform="translate(0,0)"/>
<path d="" fill="#3F3F3E" transform="translate(0,0)"/>
<path d="" fill="#3C3D3C" transform="translate(0,0)"/>
<path d="" fill="#3E3F3E" transform="translate(0,0)"/>
<path d="" fill="#1D5B8A" transform="translate(0,0)"/>
<path d="" fill="#3E3D3F" transform="translate(0,0)"/>
<path d="" fill="#1F5276" transform="translate(0,0)"/>
<path d="" fill="#3E3E3E" transform="translate(0,0)"/>
<path d="" fill="#1D5988" transform="translate(0,0)"/>
<path d="" fill="#3D3E3E" transform="translate(0,0)"/>
<path d="" fill="#3D403D" transform="translate(0,0)"/>
<path d="" fill="#1F5277" transform="translate(0,0)"/>
<path d="" fill="#3E3F3F" transform="translate(0,0)"/>
<path d="" fill="#3E3F3F" transform="translate(0,0)"/>
<path d="" fill="#0487E5" transform="translate(0,0)"/>
<path d="" fill="#3D3E3E" transform="translate(0,0)"/>
<path d="" fill="#3C3D3B" transform="translate(0,0)"/>
<path d="" fill="#3E3F3E" transform="translate(0,0)"/>
<path d="" fill="#414040" transform="translate(0,0)"/>
<path d="" fill="#1F567E" transform="translate(0,0)"/>
<path d="" fill="#3E3E3F" transform="translate(0,0)"/>
<path d="" fill="#3E3F3E" transform="translate(0,0)"/>
<path d="" fill="#0F78C7" transform="translate(0,0)"/>
<path d="" fill="#3D3F3D" transform="translate(0,0)"/>
<path d="" fill="#3E3E3E" transform="translate(0,0)"/>
<path d="" fill="#3E3E3E" transform="translate(0,0)"/>
<path d="" fill="#3C3E3F" transform="translate(0,0)"/>
<path d="" fill="#3E3E3E" transform="translate(0,0)"/>
<path d="" fill="#3A3A3A" transform="translate(0,0)"/>
<path d="" fill="#3E3E3D" transform="translate(0,0)"/>
<path d="" fill="#28475E" transform="translate(0,0)"/>
<path d="" fill="#393C40" transform="translate(0,0)"/>
<path d="" fill="#3C3F3C" transform="translate(0,0)"/>
<path d="" fill="#3E3E3F" transform="translate(0,0)"/>
<path d="" fill="#3D3D3E" transform="translate(0,0)"/>
<path d="" fill="#3D3F3D" transform="translate(0,0)"/>
<path d="" fill="#3D3E3F" transform="translate(0,0)"/>
<path d="" fill="#3E3E3F" transform="translate(0,0)"/>
<path d="" fill="#3E3F3E" transform="translate(0,0)"/>
<path d="" fill="#0587E2" transform="translate(0,0)"/>
<path d="" fill="#28485F" transform="translate(0,0)"/>
<path d="" fill="#3F3F3F" transform="translate(0,0)"/>
<path d="" fill="#3E3F3F" transform="translate(0,0)"/>
<path d="" fill="#1E537E" transform="translate(0,0)"/>
<path d="" fill="#40403E" transform="translate(0,0)"/>
<path d="" fill="#0484DE" transform="translate(0,0)"/>
<path d="" fill="#3D3E3E" transform="translate(0,0)"/>
<path d="" fill="#3D3E3E" transform="translate(0,0)"/>
<path d="" fill="#3B3C3D" transform="translate(0,0)"/>
<path d="" fill="#3D3E3E" transform="translate(0,0)"/>
<path d="" fill="#2B404E" transform="translate(0,0)"/>
<path d="" fill="#1D5682" transform="translate(0,0)"/>
<path d="" fill="#3E3E3E" transform="translate(0,0)"/>
<path d="" fill="#3D3C3C" transform="translate(0,0)"/>
<path d="" fill="#3D3E3E" transform="translate(0,0)"/>
<path d="" fill="#3D3E3E" transform="translate(0,0)"/>
<path d="" fill="#1569A9" transform="translate(0,0)"/>
<path d="" fill="#097FD4" transform="translate(0,0)"/>
<path d="" fill="#0D7DCC" transform="translate(0,0)"/>
<path d="" fill="#3D3E3D" transform="translate(0,0)"/>
<path d="" fill="#294559" transform="translate(0,0)"/>
<path d="" fill="#3B3C3B" transform="translate(0,0)"/>
<path d="" fill="#3C3E3D" transform="translate(0,0)"/>
<path d="" fill="#1D5887" transform="translate(0,0)"/>
<path d="" fill="#3D3E3E" transform="translate(0,0)"/>
<path d="" fill="#3A3C3B" transform="translate(0,0)"/>
<path d="" fill="#3E3F3D" transform="translate(0,0)"/>
<path d="" fill="#1D5A8B" transform="translate(0,0)"/>
<path d="" fill="#3C3E3E" transform="translate(0,0)"/>
<path d="" fill="#3C3E3D" transform="translate(0,0)"/>
<path d="" fill="#2A4355" transform="translate(0,0)"/>
<path d="" fill="#3C3F3E" transform="translate(0,0)"/>
<path d="" fill="#3D3F3E" transform="translate(0,0)"/>
<path d="" fill="#0F74BF" transform="translate(0,0)"/>
<path d="" fill="#1C5C8E" transform="translate(0,0)"/>
<path d="" fill="#3C3D3D" transform="translate(0,0)"/>
<path d="" fill="#195B8F" transform="translate(0,0)"/>
<path d="" fill="#3D3D3E" transform="translate(0,0)"/>
<path d="" fill="#1B5D91" transform="translate(0,0)"/>
<path d="" fill="#3C3D3E" transform="translate(0,0)"/>
<path d="" fill="#3D3D3E" transform="translate(0,0)"/>
<path d="" fill="#3D3E3D" transform="translate(0,0)"/>
<path d="" fill="#3E3E3E" transform="translate(0,0)"/>
<path d="" fill="#1A6097" transform="translate(0,0)"/>
<path d="" fill="#3C3D3C" transform="translate(0,0)"/>
<path d="" fill="#3C3D3B" transform="translate(0,0)"/>
<path d="" fill="#3D3E3E" transform="translate(0,0)"/>
<path d="" fill="#1170B4" transform="translate(0,0)"/>
<path d="" fill="#1A619B" transform="translate(0,0)"/>
<path d="" fill="#3B3B3B" transform="translate(0,0)"/>
<path d="" fill="#2C3F4B" transform="translate(0,0)"/>
<path d="" fill="#3C3E3E" transform="translate(0,0)"/>
<path d="" fill="#116EB1" transform="translate(0,0)"/>
<path d="" fill="#1965A0" transform="translate(0,0)"/>
<path d="" fill="#3B3C3D" transform="translate(0,0)"/>
<path d="" fill="#3C3D3C" transform="translate(0,0)"/>
<path d="" fill="#3D3E3E" transform="translate(0,0)"/>
<path d="" fill="#1968A6" transform="translate(0,0)"/>
<path d="" fill="#3D3D3D" transform="translate(0,0)"/>
<path d="" fill="#2C3D48" transform="translate(0,0)"/>
<path d="" fill="#165E95" transform="translate(0,0)"/>
<path d="" fill="#3C3D3C" transform="translate(0,0)"/>
<path d="" fill="#0481DC" transform="translate(0,0)"/>
<path d="" fill="#383C3C" transform="translate(0,0)"/>
<path d="" fill="#3D3D3D" transform="translate(0,0)"/>
<path d="" fill="#3C3C3D" transform="translate(0,0)"/>
<path d="" fill="#175D91" transform="translate(0,0)"/>
<path d="" fill="#3C3E3D" transform="translate(0,0)"/>
<path d="" fill="#3D3D3F" transform="translate(0,0)"/>
<path d="" fill="#393C3A" transform="translate(0,0)"/>
<path d="" fill="#3D3D3D" transform="translate(0,0)"/>
<path d="" fill="#3D3E3E" transform="translate(0,0)"/>
<path d="" fill="#116AAC" transform="translate(0,0)"/>
<path d="" fill="#166FB4" transform="translate(0,0)"/>
<path d="" fill="#3C3D3D" transform="translate(0,0)"/>
<path d="" fill="#3D3E3D" transform="translate(0,0)"/>
<path d="" fill="#204867" transform="translate(0,0)"/>
<path d="" fill="#263E50" transform="translate(0,0)"/>
<path d="" fill="#057CD5" transform="translate(0,0)"/>
<path d="" fill="#393C3B" transform="translate(0,0)"/>
<path d="" fill="#3D3D3D" transform="translate(0,0)"/>
<path d="" fill="#33383E" transform="translate(0,0)"/>
<path d="" fill="#1573BB" transform="translate(0,0)"/>
<path d="" fill="#3D3D3E" transform="translate(0,0)"/>
<path d="" fill="#3D3D3D" transform="translate(0,0)"/>
<path d="" fill="#1377C3" transform="translate(0,0)"/>
<path d="" fill="#3D3C3D" transform="translate(0,0)"/>
<path d="" fill="#3D3E3C" transform="translate(0,0)"/>
<path d="" fill="#3D3E3D" transform="translate(0,0)"/>
<path d="" fill="#117AC8" transform="translate(0,0)"/>
<path d="" fill="#21425D" transform="translate(0,0)"/>
<path d="" fill="#3B3B3B" transform="translate(0,0)"/>
<path d="" fill="#3E3D3D" transform="translate(0,0)"/>
<path d="" fill="#313A41" transform="translate(0,0)"/>
<path d="" fill="#393A39" transform="translate(0,0)"/>
<path d="" fill="#3D3D3E" transform="translate(0,0)"/>
<path d="" fill="#107BCC" transform="translate(0,0)"/>
<path d="" fill="#1E4A6C" transform="translate(0,0)"/>
<path d="" fill="#195682" transform="translate(0,0)"/>
<path d="" fill="#3C3D3C" transform="translate(0,0)"/>
<path d="" fill="#323A40" transform="translate(0,0)"/>
<path d="" fill="#3D3E3D" transform="translate(0,0)"/>
<path d="" fill="#33383C" transform="translate(0,0)"/>
<path d="" fill="#1168A6" transform="translate(0,0)"/>
<path d="" fill="#0E7CCD" transform="translate(0,0)"/>
<path d="" fill="#3C3D3E" transform="translate(0,0)"/>
<path d="" fill="#3D3E3D" transform="translate(0,0)"/>
<path d="" fill="#3C3D3E" transform="translate(0,0)"/>
<path d="" fill="#313A3F" transform="translate(0,0)"/>
<path d="" fill="#3C3C3E" transform="translate(0,0)"/>
<path d="" fill="#0F7CCC" transform="translate(0,0)"/>
<path d="" fill="#3C3C3D" transform="translate(0,0)"/>
<path d="" fill="#33393D" transform="translate(0,0)"/>
<path d="" fill="#3D3E3E" transform="translate(0,0)"/>
<path d="" fill="#34363B" transform="translate(0,0)"/>
<path d="" fill="#117AC8" transform="translate(0,0)"/>
<path d="" fill="#3C3C3E" transform="translate(0,0)"/>
<path d="" fill="#243F54" transform="translate(0,0)"/>
<path d="" fill="#2B3843" transform="translate(0,0)"/>
<path d="" fill="#333A3D" transform="translate(0,0)"/>
<path d="" fill="#1F4964" transform="translate(0,0)"/>
<path d="" fill="#3D3E3E" transform="translate(0,0)"/>
<path d="" fill="#3D3D3D" transform="translate(0,0)"/>
<path d="" fill="#34383A" transform="translate(0,0)"/>
<path d="" fill="#1268A5" transform="translate(0,0)"/>
<path d="" fill="#087ED1" transform="translate(0,0)"/>
<path d="" fill="#2C3A41" transform="translate(0,0)"/>
<path d="" fill="#32383D" transform="translate(0,0)"/>
<path d="" fill="#3D3E3D" transform="translate(0,0)"/>
<path d="" fill="#1167A6" transform="translate(0,0)"/>
<path d="" fill="#1571B6" transform="translate(0,0)"/>
<path d="" fill="#3C3C3E" transform="translate(0,0)"/>
<path d="" fill="#32383E" transform="translate(0,0)"/>
<path d="" fill="#263E50" transform="translate(0,0)"/>
<path d="" fill="#2C3942" transform="translate(0,0)"/>
<path d="" fill="#0A7CCE" transform="translate(0,0)"/>
<path d="" fill="#3D3D3D" transform="translate(0,0)"/>
<path d="" fill="#1367A5" transform="translate(0,0)"/>
<path d="" fill="#176CAD" transform="translate(0,0)"/>
<path d="" fill="#3C3C3E" transform="translate(0,0)"/>
<path d="" fill="#3D3E3C" transform="translate(0,0)"/>
<path d="" fill="#3C3C3E" transform="translate(0,0)"/>
<path d="" fill="#1267A6" transform="translate(0,0)"/>
<path d="" fill="#2E383F" transform="translate(0,0)"/>
<path d="" fill="#21445E" transform="translate(0,0)"/>
<path d="" fill="#057FDA" transform="translate(0,0)"/>
<path d="" fill="#3B3B3B" transform="translate(0,0)"/>
<path d="" fill="#3C3D3D" transform="translate(0,0)"/>
<path d="" fill="#20445F" transform="translate(0,0)"/>
<path d="" fill="#1366A4" transform="translate(0,0)"/>
<path d="" fill="#1A649A" transform="translate(0,0)"/>
<path d="" fill="#3C3E3E" transform="translate(0,0)"/>
<path d="" fill="#263C4F" transform="translate(0,0)"/>
<path d="" fill="#3C3E3C" transform="translate(0,0)"/>
<path d="" fill="#2D3940" transform="translate(0,0)"/>
<path d="" fill="#3D3E3D" transform="translate(0,0)"/>
<path d="" fill="#1366A2" transform="translate(0,0)"/>
<path d="" fill="#1A5E92" transform="translate(0,0)"/>
<path d="" fill="#3B3C3D" transform="translate(0,0)"/>
<path d="" fill="#283B4E" transform="translate(0,0)"/>
<path d="" fill="#3D3D3E" transform="translate(0,0)"/>
<path d="" fill="#3D3D3D" transform="translate(0,0)"/>
<path d="" fill="#1366A1" transform="translate(0,0)"/>
<path d="" fill="#3B3A3A" transform="translate(0,0)"/>
<path d="" fill="#3C3C3D" transform="translate(0,0)"/>
<path d="" fill="#273C4C" transform="translate(0,0)"/>
<path d="" fill="#3B3B3B" transform="translate(0,0)"/>
<path d="" fill="#2E383D" transform="translate(0,0)"/>
<path d="" fill="#22435B" transform="translate(0,0)"/>
<path d="" fill="#3D3D3E" transform="translate(0,0)"/>
<path d="" fill="#224259" transform="translate(0,0)"/>
<path d="" fill="#1564A0" transform="translate(0,0)"/>
<path d="" fill="#1E5784" transform="translate(0,0)"/>
<path d="" fill="#3C3D3E" transform="translate(0,0)"/>
<path d="" fill="#33373A" transform="translate(0,0)"/>
<path d="" fill="#3E3D3D" transform="translate(0,0)"/>
<path d="" fill="#283C4B" transform="translate(0,0)"/>
<path d="" fill="#35393B" transform="translate(0,0)"/>
<path d="" fill="#23435A" transform="translate(0,0)"/>
<path d="" fill="#3D3E3D" transform="translate(0,0)"/>
<path d="" fill="#37393A" transform="translate(0,0)"/>
<path d="" fill="#14639C" transform="translate(0,0)"/>
<path d="" fill="#1E537C" transform="translate(0,0)"/>
<path d="" fill="#3C3D3D" transform="translate(0,0)"/>
<path d="" fill="#3B3E3C" transform="translate(0,0)"/>
<path d="" fill="#2F363D" transform="translate(0,0)"/>
<path d="" fill="#3C3D3E" transform="translate(0,0)"/>
<path d="" fill="#1E4E72" transform="translate(0,0)"/>
<path d="" fill="#3A3C3A" transform="translate(0,0)"/>
<path d="" fill="#3D3D3D" transform="translate(0,0)"/>
<path d="" fill="#363939" transform="translate(0,0)"/>
<path d="" fill="#205074" transform="translate(0,0)"/>
<path d="" fill="#3B3C3D" transform="translate(0,0)"/>
<path d="" fill="#3D3C3E" transform="translate(0,0)"/>
<path d="" fill="#293C4A" transform="translate(0,0)"/>
<path d="" fill="#3C3E3C" transform="translate(0,0)"/>
<path d="" fill="#30373C" transform="translate(0,0)"/>
<path d="" fill="#35393B" transform="translate(0,0)"/>
<path d="" fill="#3D3E3E" transform="translate(0,0)"/>
<path d="" fill="#214C6E" transform="translate(0,0)"/>
<path d="" fill="#097AD0" transform="translate(0,0)"/>
<path d="" fill="#3D3D3C" transform="translate(0,0)"/>
<path d="" fill="#3C3C3C" transform="translate(0,0)"/>
<path d="" fill="#0A79CD" transform="translate(0,0)"/>
<path d="" fill="#31393C" transform="translate(0,0)"/>
<path d="" fill="#3A3C3A" transform="translate(0,0)"/>
<path d="" fill="#3C3E3D" transform="translate(0,0)"/>
<path d="" fill="#165B8F" transform="translate(0,0)"/>
<path d="" fill="#3C3D3E" transform="translate(0,0)"/>
<path d="" fill="#30363B" transform="translate(0,0)"/>
<path d="" fill="#0479CF" transform="translate(0,0)"/>
<path d="" fill="#35383A" transform="translate(0,0)"/>
<path d="" fill="#3D3D3E" transform="translate(0,0)"/>
<path d="" fill="#3E3E3E" transform="translate(0,0)"/>
<path d="" fill="#353839" transform="translate(0,0)"/>
<path d="" fill="#175A89" transform="translate(0,0)"/>
<path d="" fill="#3B3B3B" transform="translate(0,0)"/>
<path d="" fill="#3C3E3D" transform="translate(0,0)"/>
<path d="" fill="#363A3A" transform="translate(0,0)"/>
<path d="" fill="#3D3D3E" transform="translate(0,0)"/>
<path d="" fill="#3D3E3D" transform="translate(0,0)"/>
<path d="" fill="#195684" transform="translate(0,0)"/>
<path d="" fill="#25435C" transform="translate(0,0)"/>
<path d="" fill="#3C3E3E" transform="translate(0,0)"/>
<path d="" fill="#2C3943" transform="translate(0,0)"/>
<path d="" fill="#393B3B" transform="translate(0,0)"/>
<path d="" fill="#383A3B" transform="translate(0,0)"/>
<path d="" fill="#3E3E3F" transform="translate(0,0)"/>
<path d="" fill="#19547C" transform="translate(0,0)"/>
<path d="" fill="#3C3D3D" transform="translate(0,0)"/>
<path d="" fill="#373738" transform="translate(0,0)"/>
<path d="" fill="#3C3C3C" transform="translate(0,0)"/>
<path d="" fill="#3E3E3E" transform="translate(0,0)"/>
<path d="" fill="#1B5075" transform="translate(0,0)"/>
<path d="" fill="#283F53" transform="translate(0,0)"/>
<path d="" fill="#343638" transform="translate(0,0)"/>
<path d="" fill="#3C3B3B" transform="translate(0,0)"/>
<path d="" fill="#3D3D3E" transform="translate(0,0)"/>
<path d="" fill="#1D4D6F" transform="translate(0,0)"/>
<path d="" fill="#2A3D4D" transform="translate(0,0)"/>
<path d="" fill="#2E383E" transform="translate(0,0)"/>
<path d="" fill="#34383A" transform="translate(0,0)"/>
<path d="" fill="#1F4A6C" transform="translate(0,0)"/>
<path d="" fill="#3B3B3C" transform="translate(0,0)"/>
<path d="" fill="#3D3D3F" transform="translate(0,0)"/>
<path d="" fill="#3D3E3D" transform="translate(0,0)"/>
<path d="" fill="#2C3C49" transform="translate(0,0)"/>
<path d="" fill="#31363C" transform="translate(0,0)"/>
<path d="" fill="#393A3B" transform="translate(0,0)"/>
<path d="" fill="#3D3C3C" transform="translate(0,0)"/>
<path d="" fill="#3D3D3D" transform="translate(0,0)"/>
<path d="" fill="#204763" transform="translate(0,0)"/>
<path d="" fill="#2D3B46" transform="translate(0,0)"/>
<path d="" fill="#3D3D3D" transform="translate(0,0)"/>
<path d="" fill="#3D3E3D" transform="translate(0,0)"/>
<path d="" fill="#353838" transform="translate(0,0)"/>
<path d="" fill="#33383A" transform="translate(0,0)"/>
<path d="" fill="#2E3941" transform="translate(0,0)"/>
<path d="" fill="#234560" transform="translate(0,0)"/>
<path d="" fill="#3E3E3E" transform="translate(0,0)"/>
<path d="" fill="#21455D" transform="translate(0,0)"/>
<path d="" fill="#2E3942" transform="translate(0,0)"/>
<path d="" fill="#3C3D3E" transform="translate(0,0)"/>
<path d="" fill="#3B3B3B" transform="translate(0,0)"/>
<path d="" fill="#3A3B3A" transform="translate(0,0)"/>
<path d="" fill="#303A3F" transform="translate(0,0)"/>
<path d="" fill="#3E3D3D" transform="translate(0,0)"/>
<path d="" fill="#39393B" transform="translate(0,0)"/>
<path d="" fill="#2E393E" transform="translate(0,0)"/>
<path d="" fill="#224257" transform="translate(0,0)"/>
<path d="" fill="#303741" transform="translate(0,0)"/>
<path d="" fill="#3A3839" transform="translate(0,0)"/>
<path d="" fill="#2A3C48" transform="translate(0,0)"/>
<path d="" fill="#3D3C3C" transform="translate(0,0)"/>
<path d="" fill="#3D3E3D" transform="translate(0,0)"/>
<path d="" fill="#35373B" transform="translate(0,0)"/>
<path d="" fill="#244154" transform="translate(0,0)"/>
<path d="" fill="#313940" transform="translate(0,0)"/>
<path d="" fill="#3C3D3D" transform="translate(0,0)"/>
<path d="" fill="#32393E" transform="translate(0,0)"/>
<path d="" fill="#2C3A45" transform="translate(0,0)"/>
<path d="" fill="#323A3D" transform="translate(0,0)"/>
<path d="" fill="#3D3D3D" transform="translate(0,0)"/>
<path d="" fill="#31383C" transform="translate(0,0)"/>
<path d="" fill="#263F50" transform="translate(0,0)"/>
<path d="" fill="#21435D" transform="translate(0,0)"/>
<path d="" fill="#33383E" transform="translate(0,0)"/>
<path d="" fill="#36383A" transform="translate(0,0)"/>
<path d="" fill="#2D3B42" transform="translate(0,0)"/>
<path d="" fill="#333A3C" transform="translate(0,0)"/>
<path d="" fill="#3E3D3D" transform="translate(0,0)"/>
<path d="" fill="#3A393A" transform="translate(0,0)"/>
<path d="" fill="#283E4B" transform="translate(0,0)"/>
<path d="" fill="#3C3D3D" transform="translate(0,0)"/>
<path d="" fill="#3A3A3A" transform="translate(0,0)"/>
<path d="" fill="#363839" transform="translate(0,0)"/>
<path d="" fill="#2D3A41" transform="translate(0,0)"/>
<path d="" fill="#373938" transform="translate(0,0)"/>
<path d="" fill="#343A3B" transform="translate(0,0)"/>
<path d="" fill="#3E3D3E" transform="translate(0,0)"/>
<path d="" fill="#2A3D48" transform="translate(0,0)"/>
<path d="" fill="#34373D" transform="translate(0,0)"/>
<path d="" fill="#3D3E3D" transform="translate(0,0)"/>
<path d="" fill="#3B393A" transform="translate(0,0)"/>
<path d="" fill="#363639" transform="translate(0,0)"/>
<path d="" fill="#2F3940" transform="translate(0,0)"/>
<path d="" fill="#34393B" transform="translate(0,0)"/>
<path d="" fill="#2C3B47" transform="translate(0,0)"/>
<path d="" fill="#3B3B3B" transform="translate(0,0)"/>
<path d="" fill="#343A3A" transform="translate(0,0)"/>
<path d="" fill="#3D3E3E" transform="translate(0,0)"/>
<path d="" fill="#3A3B3A" transform="translate(0,0)"/>
<path d="" fill="#2B3B45" transform="translate(0,0)"/>
<path d="" fill="#35383C" transform="translate(0,0)"/>
<path d="" fill="#3D3B3B" transform="translate(0,0)"/>
<path d="" fill="#3C3E3D" transform="translate(0,0)"/>
<path d="" fill="#38393A" transform="translate(0,0)"/>
<path d="" fill="#3C3B3C" transform="translate(0,0)"/>
<path d="" fill="#2F3C44" transform="translate(0,0)"/>
<path d="" fill="#3F3F3D" transform="translate(0,0)"/>
<path d="" fill="#36393C" transform="translate(0,0)"/>
<path d="" fill="#2D3A43" transform="translate(0,0)"/>
<path d="" fill="#36383B" transform="translate(0,0)"/>
<path d="" fill="#3D3D3E" transform="translate(0,0)"/>
<path d="" fill="#37393A" transform="translate(0,0)"/>
<path d="" fill="#32393C" transform="translate(0,0)"/>
<path d="" fill="#3C3A3B" transform="translate(0,0)"/>
<path d="" fill="#3A3A39" transform="translate(0,0)"/>
<path d="" fill="#303A41" transform="translate(0,0)"/>
<path d="" fill="#3C3C3B" transform="translate(0,0)"/>
<path d="" fill="#3E3E3E" transform="translate(0,0)"/>
<path d="" fill="#2F3940" transform="translate(0,0)"/>
<path d="" fill="#37383A" transform="translate(0,0)"/>
<path d="" fill="#3E3D3D" transform="translate(0,0)"/>
<path d="" fill="#38393A" transform="translate(0,0)"/>
<path d="" fill="#393A38" transform="translate(0,0)"/>
<path d="" fill="#333839" transform="translate(0,0)"/>
<path d="" fill="#3E3E3D" transform="translate(0,0)"/>
<path d="" fill="#373B3A" transform="translate(0,0)"/>
<path d="" fill="#3E3E3E" transform="translate(0,0)"/>
<path d="" fill="#3B3B3B" transform="translate(0,0)"/>
<path d="" fill="#313B3D" transform="translate(0,0)"/>
<path d="" fill="#37383C" transform="translate(0,0)"/>
<path d="" fill="#3E3E3E" transform="translate(0,0)"/>
<path d="" fill="#2D3C42" transform="translate(0,0)"/>
<path d="" fill="#33393D" transform="translate(0,0)"/>
<path d="" fill="#353A3A" transform="translate(0,0)"/>
<path d="" fill="#363839" transform="translate(0,0)"/>
<path d="" fill="#3B3C3B" transform="translate(0,0)"/>
<path d="" fill="#383C3A" transform="translate(0,0)"/>
<path d="" fill="#3D3F3E" transform="translate(0,0)"/>
<path d="" fill="#3E3E3E" transform="translate(0,0)"/>
<path d="" fill="#32393C" transform="translate(0,0)"/>
<path d="" fill="#39393B" transform="translate(0,0)"/>
<path d="" fill="#39393A" transform="translate(0,0)"/>
<path d="" fill="#393A3A" transform="translate(0,0)"/>
<path d="" fill="#3D3E3D" transform="translate(0,0)"/>
<path d="" fill="#38393A" transform="translate(0,0)"/>
<path d="" fill="#38393A" transform="translate(0,0)"/>
<path d="" fill="#3C3C3B" transform="translate(0,0)"/>
<path d="" fill="#3C3D3D" transform="translate(0,0)"/>
<path d="" fill="#3D3E3F" transform="translate(0,0)"/>
<path d="" fill="#3D3E3D" transform="translate(0,0)"/>
<path d="" fill="#3E3F3E" transform="translate(0,0)"/>
<path d="" fill="#3C3B3A" transform="translate(0,0)"/>
<path d="" fill="#373A3A" transform="translate(0,0)"/>
<path d="" fill="#373A3A" transform="translate(0,0)"/>
<path d="" fill="#34393B" transform="translate(0,0)"/>
<path d="" fill="#30383E" transform="translate(0,0)"/>
<path d="" fill="#3B3B3D" transform="translate(0,0)"/>
<path d="" fill="#3E3F3F" transform="translate(0,0)"/>
<path d="" fill="#3C3B3B" transform="translate(0,0)"/>
<path d="" fill="#3B3A3B" transform="translate(0,0)"/>
<path d="" fill="#393B39" transform="translate(0,0)"/>
<path d="" fill="#363A3A" transform="translate(0,0)"/>
<path d="" fill="#363737" transform="translate(0,0)"/>
<path d="" fill="#3A3A39" transform="translate(0,0)"/>
<path d="" fill="#3E403E" transform="translate(0,0)"/>
<path d="" fill="#3D3D3C" transform="translate(0,0)"/>
<path d="" fill="#383A3B" transform="translate(0,0)"/>
<path d="" fill="#36393C" transform="translate(0,0)"/>
<path d="" fill="#363837" transform="translate(0,0)"/>
<path d="" fill="#363938" transform="translate(0,0)"/>
<path d="" fill="#3A3A3A" transform="translate(0,0)"/>
<path d="" fill="#383A3B" transform="translate(0,0)"/>
<path d="" fill="#383B3B" transform="translate(0,0)"/>
<path d="" fill="#3E3D3E" transform="translate(0,0)"/>
<path d="" fill="#3C3E3B" transform="translate(0,0)"/>
<path d="" fill="#3F3E3F" transform="translate(0,0)"/>
<path d="" fill="#3D3B3D" transform="translate(0,0)"/>
<path d="" fill="#35393A" transform="translate(0,0)"/>
<path d="" fill="#343A3B" transform="translate(0,0)"/>
<path d="" fill="#3A393B" transform="translate(0,0)"/>
<path d="" fill="#3D3E3F" transform="translate(0,0)"/>
<path d="" fill="#3A3A3B" transform="translate(0,0)"/>
<path d="" fill="#3D3B3C" transform="translate(0,0)"/>
<path d="" fill="#36393A" transform="translate(0,0)"/>
<path d="" fill="#3B3C39" transform="translate(0,0)"/>
<path d="" fill="#3B3C3A" transform="translate(0,0)"/>
<path d="" fill="#3A3C3B" transform="translate(0,0)"/>
<path d="" fill="#353836" transform="translate(0,0)"/>
<path d="" fill="#3A3A3B" transform="translate(0,0)"/>
<path d="" fill="#3B3C3C" transform="translate(0,0)"/>
<path d="" fill="#3F3F3E" transform="translate(0,0)"/>
<path d="" fill="#393A3A" transform="translate(0,0)"/>
<path d="" fill="#3A3C3C" transform="translate(0,0)"/>
<path d="" fill="#353A39" transform="translate(0,0)"/>
<path d="" fill="#32373C" transform="translate(0,0)"/>
<path d="" fill="#33373A" transform="translate(0,0)"/>
<path d="" fill="#3A3B3D" transform="translate(0,0)"/>
<path d="" fill="#3E3E3F" transform="translate(0,0)"/>
<path d="" fill="#3C3B3D" transform="translate(0,0)"/>
<path d="" fill="#3B3A3C" transform="translate(0,0)"/>
<path d="" fill="#3A3A3A" transform="translate(0,0)"/>
<path d="" fill="#3E3F3D" transform="translate(0,0)"/>
<path d="" fill="#3B3C3B" transform="translate(0,0)"/>
<path d="" fill="#3B3B3B" transform="translate(0,0)"/>
<path d="" fill="#373A3B" transform="translate(0,0)"/>
<path d="" fill="#373B3A" transform="translate(0,0)"/>
<path d="" fill="#3D3D3E" transform="translate(0,0)"/>
<path d="" fill="#3A3D3B" transform="translate(0,0)"/>
<path d="" fill="#3E3E3C" transform="translate(0,0)"/>
<path d="" fill="#3F3F3E" transform="translate(0,0)"/>
<path d="" fill="#393C3B" transform="translate(0,0)"/>
<path d="" fill="#363A3A" transform="translate(0,0)"/>
<path d="" fill="#34383C" transform="translate(0,0)"/>
<path d="" fill="#3B3B3D" transform="translate(0,0)"/>
<path d="" fill="#3D3F3F" transform="translate(0,0)"/>
<path d="" fill="#3F3F3F" transform="translate(0,0)"/>
<path d="" fill="#3B3A3C" transform="translate(0,0)"/>
<path d="" fill="#383A3B" transform="translate(0,0)"/>
<path d="" fill="#383A39" transform="translate(0,0)"/>
<path d="" fill="#3E3E3F" transform="translate(0,0)"/>
<path d="" fill="#3C3B3A" transform="translate(0,0)"/>
<path d="" fill="#37393A" transform="translate(0,0)"/>
<path d="" fill="#383B3A" transform="translate(0,0)"/>
<path d="" fill="#3C3E3C" transform="translate(0,0)"/>
<path d="" fill="#3E3F3C" transform="translate(0,0)"/>
<path d="" fill="#403F3E" transform="translate(0,0)"/>
<path d="" fill="#3A3B3B" transform="translate(0,0)"/>
<path d="" fill="#373A3A" transform="translate(0,0)"/>
<path d="" fill="#3B3C3E" transform="translate(0,0)"/>
<path d="" fill="#3E3F3F" transform="translate(0,0)"/>
<path d="" fill="#3C3B3B" transform="translate(0,0)"/>
<path d="" fill="#3C3C3C" transform="translate(0,0)"/>
<path d="" fill="#3D3C3E" transform="translate(0,0)"/>
<path d="" fill="#3F403E" transform="translate(0,0)"/>
<path d="" fill="#3D3C3C" transform="translate(0,0)"/>
<path d="" fill="#3E3E3F" transform="translate(0,0)"/>
<path d="" fill="#35393A" transform="translate(0,0)"/>
<path d="" fill="#3F3F3F" transform="translate(0,0)"/>
<path d="" fill="#3A3B3B" transform="translate(0,0)"/>
<path d="" fill="#373B3B" transform="translate(0,0)"/>
<path d="" fill="#38393A" transform="translate(0,0)"/>
<path d="" fill="#35383B" transform="translate(0,0)"/>
<path d="" fill="#3C3C3C" transform="translate(0,0)"/>
<path d="" fill="#3E3E40" transform="translate(0,0)"/>
<path d="" fill="#3E3D3E" transform="translate(0,0)"/>
<path d="" fill="#393C3B" transform="translate(0,0)"/>
<path d="" fill="#3A3A38" transform="translate(0,0)"/>
<path d="" fill="#3B3C3C" transform="translate(0,0)"/>
<path d="" fill="#3B3B3B" transform="translate(0,0)"/>
<path d="" fill="#383837" transform="translate(0,0)"/>
<path d="" fill="#3A3B3D" transform="translate(0,0)"/>
</svg>
